<?xml version="1.0" standalone="no"?>
<!DOCTYPE svg PUBLIC "-//W3C//DTD SVG 20010904//EN"
 "http://www.w3.org/TR/2001/REC-SVG-20010904/DTD/svg10.dtd">
<svg version="1.0" xmlns="http://www.w3.org/2000/svg"
 width="583.000000pt" height="481.000000pt" viewBox="0 0 583.000000 481.000000"
 preserveAspectRatio="xMidYMid meet">

<g transform="translate(0.000000,481.000000) scale(0.100000,-0.100000)"
fill="#000000" stroke="none">
<path d="M880 4775 c-7 -8 -18 -15 -24 -15 -6 0 -29 -18 -50 -40 -22 -22 -48
-40 -58 -40 -23 0 -148 -125 -148 -148 0 -9 -40 -59 -90 -110 -49 -52 -90
-102 -90 -111 0 -10 -9 -26 -20 -36 -11 -10 -20 -28 -20 -39 0 -12 -9 -29 -19
-38 -12 -10 -18 -24 -14 -36 3 -14 -2 -24 -16 -31 -13 -8 -21 -22 -21 -39 0
-15 -9 -35 -20 -45 -14 -11 -20 -29 -20 -56 0 -26 -6 -43 -16 -49 -9 -5 -18
-24 -20 -41 -2 -18 -11 -42 -19 -54 -9 -13 -15 -44 -15 -83 0 -48 -4 -65 -20
-79 -18 -16 -20 -31 -20 -147 0 -115 2 -133 20 -155 15 -20 20 -41 20 -91 0
-45 5 -71 16 -83 8 -9 17 -31 19 -49 3 -18 11 -43 20 -56 8 -13 15 -34 15 -46
0 -13 9 -36 20 -53 11 -16 20 -44 20 -60 0 -19 7 -35 20 -43 17 -10 20 -23 20
-92 0 -62 3 -82 15 -86 13 -5 15 -37 15 -201 0 -175 -2 -197 -17 -209 -14 -10
-17 -24 -15 -71 3 -49 0 -62 -17 -78 -17 -14 -21 -30 -21 -76 0 -48 -4 -60
-20 -69 -12 -7 -20 -21 -20 -38 0 -17 -8 -32 -21 -40 -13 -9 -19 -20 -16 -32
3 -10 -4 -32 -14 -49 -11 -18 -19 -45 -19 -61 0 -19 -7 -33 -20 -40 -15 -8
-20 -21 -20 -54 0 -30 -6 -48 -20 -61 -17 -16 -20 -31 -20 -109 0 -98 13 -138
45 -145 11 -2 26 -12 33 -22 19 -28 97 -27 112 1 6 11 21 20 33 20 26 0 141
114 172 170 10 19 43 60 72 89 29 30 53 62 53 71 0 9 18 35 40 58 22 22 40 50
40 60 0 10 16 33 35 52 19 19 35 42 35 51 0 24 20 35 31 18 5 -8 9 -102 9
-210 0 -162 3 -199 15 -209 10 -8 15 -30 15 -63 0 -39 6 -60 26 -89 l27 -38
76 0 c71 0 79 2 103 28 13 15 35 45 48 67 13 22 30 45 38 52 8 7 16 24 18 39
1 15 10 31 18 36 10 6 16 23 16 49 0 27 6 45 20 56 15 13 20 30 20 65 0 38 4
50 21 58 17 10 20 19 17 71 -2 49 1 62 15 70 13 8 17 24 17 74 0 54 3 66 20
75 15 8 20 21 20 54 0 30 6 48 20 61 11 10 20 24 20 32 0 8 10 27 22 43 21 29
24 30 107 30 60 -1 92 -5 105 -15 11 -8 39 -15 62 -15 26 0 51 -7 67 -20 18
-14 40 -20 80 -20 41 0 58 -5 72 -20 16 -18 31 -20 130 -20 88 0 115 -3 125
-15 9 -11 33 -15 90 -15 57 0 81 -4 90 -15 18 -21 7 -235 -14 -294 -12 -34
-16 -82 -16 -215 1 -159 2 -174 24 -211 15 -26 31 -41 47 -43 13 -2 32 -11 42
-19 15 -15 19 -15 35 0 10 10 27 17 38 17 27 0 144 120 144 148 0 12 9 27 20
34 12 8 20 24 20 40 0 17 8 31 20 38 11 6 20 21 20 34 0 13 9 31 20 41 11 10
20 29 20 42 0 13 7 26 15 29 8 4 15 19 15 35 0 18 7 32 20 39 13 7 20 21 20
39 0 16 7 34 15 41 9 7 15 29 15 51 0 28 6 42 20 51 17 11 20 24 20 79 0 56
-3 69 -23 87 -13 12 -26 22 -30 22 -3 0 -27 -21 -52 -47 -40 -42 -45 -52 -41
-81 4 -25 0 -37 -15 -50 -10 -9 -19 -27 -19 -40 0 -13 -9 -35 -20 -49 -11 -14
-20 -41 -20 -59 0 -23 -6 -37 -20 -44 -12 -7 -20 -21 -20 -38 0 -16 -8 -32
-20 -40 -11 -7 -20 -21 -20 -31 0 -19 -53 -110 -84 -144 -9 -9 -16 -28 -16
-42 0 -28 -27 -46 -39 -26 -13 21 0 283 17 341 9 32 17 98 18 158 1 92 4 105
24 127 18 19 34 25 65 25 29 0 47 6 60 20 10 11 26 20 36 20 9 0 55 38 102 85
l84 85 -1 124 c-3 136 -9 151 -78 203 -27 20 -43 23 -116 23 l-84 0 -64 -63
c-37 -37 -64 -72 -64 -84 0 -11 -9 -28 -20 -38 -14 -13 -20 -31 -20 -61 0 -33
-5 -46 -21 -54 -17 -10 -20 -19 -17 -68 1 -31 -1 -63 -5 -69 -6 -9 -45 -13
-136 -13 -115 0 -130 2 -146 20 -16 17 -31 20 -116 20 -88 0 -99 2 -109 20 -8
15 -21 20 -55 20 -26 0 -61 9 -82 20 -21 11 -52 20 -69 20 -17 0 -37 7 -44 15
-10 12 -36 15 -114 15 l-101 0 -64 -63 c-38 -38 -65 -73 -66 -86 -1 -13 -9
-28 -18 -33 -10 -5 -17 -21 -17 -36 0 -15 -9 -35 -20 -45 -15 -13 -20 -29 -20
-70 0 -41 -5 -58 -20 -72 -16 -14 -19 -26 -14 -53 5 -26 2 -40 -15 -62 -15
-21 -21 -44 -21 -80 0 -39 -4 -53 -20 -62 -16 -10 -20 -24 -20 -62 0 -32 -7
-60 -21 -82 -11 -19 -18 -38 -14 -44 3 -5 -14 -30 -39 -56 -74 -75 -76 -70
-76 179 0 172 -3 217 -15 233 -9 12 -14 42 -15 80 0 48 -4 65 -20 79 -12 11
-20 31 -20 50 0 18 -9 44 -20 58 -11 14 -20 36 -20 50 0 14 -7 27 -15 31 -8 3
-15 16 -15 29 0 13 -9 32 -20 42 -11 10 -20 28 -20 41 0 13 -15 35 -35 53 -20
17 -46 50 -59 74 -12 25 -46 67 -74 95 -35 35 -52 60 -52 77 0 14 -8 29 -20
35 -11 6 -20 21 -20 34 0 13 -9 31 -20 41 -11 10 -20 29 -20 42 0 13 -7 26
-15 29 -8 4 -15 18 -15 34 0 15 -9 39 -20 53 -11 14 -20 37 -20 52 0 15 -9 38
-20 52 -12 15 -20 41 -20 62 0 21 -5 42 -12 49 -6 6 -15 37 -19 68 -4 30 -15
64 -23 73 -13 15 -16 47 -16 188 0 160 1 171 21 189 16 14 20 27 16 51 -4 23
0 39 14 57 11 13 19 40 19 60 0 25 6 38 20 46 14 7 20 21 20 44 0 19 7 39 15
46 8 7 18 30 22 52 3 22 12 42 19 45 8 3 14 16 14 29 0 14 16 39 40 63 22 22
40 48 40 59 0 11 31 49 71 88 39 38 74 78 79 90 10 24 111 114 129 114 13 0
15 -10 12 -62 -2 -28 2 -39 18 -48 16 -8 21 -20 21 -55 0 -34 5 -47 20 -55 11
-6 20 -21 20 -34 0 -26 80 -116 103 -116 7 0 41 -25 74 -55 34 -30 70 -55 81
-55 10 0 27 -9 37 -20 10 -11 28 -20 41 -20 13 0 27 -6 31 -14 5 -8 32 -15 65
-18 33 -3 65 -12 75 -20 10 -9 32 -18 48 -20 25 -2 31 -8 33 -33 2 -16 8 -34
13 -40 17 -17 9 -35 -16 -35 -14 0 -29 -8 -35 -20 -9 -17 -21 -20 -75 -20 -44
0 -68 -5 -79 -15 -9 -9 -38 -19 -66 -22 -27 -3 -55 -12 -61 -19 -6 -8 -17 -14
-24 -14 -7 0 -24 -9 -38 -20 -14 -11 -31 -20 -39 -20 -7 0 -18 -8 -24 -17 -7
-10 -29 -27 -50 -37 -71 -36 -94 -64 -94 -116 0 -36 5 -52 23 -68 13 -12 26
-22 30 -22 9 0 72 44 92 64 27 27 35 9 35 -79 0 -74 2 -86 20 -95 11 -6 20
-16 20 -23 0 -18 67 -87 84 -87 8 0 20 -9 26 -20 8 -15 21 -20 55 -20 30 0 47
-5 53 -16 8 -14 44 -16 312 -16 259 1 305 3 319 16 13 12 39 16 94 16 66 0 78
3 87 20 9 17 21 20 77 20 49 0 71 5 86 18 14 13 41 18 108 20 60 3 92 8 100
18 18 21 401 20 419 -1 7 -8 25 -15 40 -15 50 0 60 -9 60 -55 0 -29 -6 -47
-20 -60 -14 -12 -20 -31 -20 -59 0 -30 -5 -45 -19 -53 -17 -11 -19 -20 -14
-68 5 -47 3 -61 -16 -85 -21 -29 -21 -35 -21 -469 0 -428 1 -441 21 -475 19
-32 20 -49 18 -180 -2 -125 0 -148 14 -164 12 -13 17 -36 17 -74 0 -42 5 -59
20 -73 11 -10 20 -28 20 -41 0 -51 147 -99 181 -58 7 8 25 22 41 30 15 8 28
20 28 28 0 7 11 23 25 36 14 13 25 34 25 47 0 13 7 26 15 29 8 4 15 19 15 35
0 18 7 32 20 39 16 8 20 21 20 57 0 30 6 53 17 65 10 12 18 39 19 70 2 28 9
57 18 67 9 10 16 27 16 39 0 12 9 27 20 34 12 8 20 24 20 40 0 15 9 42 20 60
11 18 20 43 20 54 0 12 7 27 15 34 9 7 15 29 15 55 0 29 6 47 20 60 16 15 20
31 20 90 0 59 4 75 20 90 19 17 20 31 20 189 0 154 -2 174 -20 201 -12 18 -20
47 -20 71 0 28 -6 47 -20 59 -11 10 -20 28 -20 39 0 12 -9 29 -20 39 -11 9
-20 26 -20 37 0 12 -48 67 -125 144 -69 68 -125 126 -125 129 0 16 128 127
146 127 12 0 33 9 47 20 15 12 40 20 63 20 22 0 46 7 57 18 16 14 44 17 177
20 152 3 159 2 170 -17 8 -16 20 -21 51 -21 26 0 50 -7 66 -20 15 -12 41 -20
62 -20 25 0 40 -6 49 -20 8 -14 23 -20 46 -20 18 0 39 -7 46 -15 7 -8 18 -15
25 -15 7 0 24 -9 38 -20 14 -11 32 -20 41 -20 8 0 20 -9 26 -20 7 -13 21 -20
43 -20 18 0 41 -7 51 -15 11 -8 31 -15 44 -15 13 0 35 -9 49 -20 20 -16 41
-20 97 -20 54 0 78 -5 101 -20 38 -25 66 -25 98 0 18 14 40 20 80 20 36 0 59
5 67 15 7 8 18 15 25 15 7 0 24 9 38 20 14 11 32 20 41 20 26 0 296 277 296
303 0 12 9 28 20 35 11 7 20 22 20 35 1 12 12 35 25 52 26 32 42 28 50 -15 2
-12 11 -30 20 -40 8 -9 15 -32 15 -50 0 -18 7 -42 16 -52 15 -15 17 -51 17
-284 0 -239 -1 -267 -16 -276 -11 -6 -17 -22 -17 -48 0 -32 -7 -47 -35 -76
-20 -20 -48 -57 -62 -83 -35 -59 -167 -189 -201 -198 -15 -3 -33 -15 -40 -25
-9 -12 -26 -18 -51 -18 -22 0 -44 -6 -51 -15 -7 -9 -29 -15 -55 -15 -29 0 -47
-6 -60 -20 -17 -19 -31 -20 -187 -20 -155 0 -172 2 -195 20 -18 14 -41 20 -78
20 -38 0 -55 4 -59 15 -3 8 -16 15 -29 15 -13 0 -32 9 -42 20 -10 11 -28 20
-40 20 -12 0 -30 9 -40 20 -10 11 -26 20 -37 20 -10 0 -33 15 -51 34 -17 18
-52 45 -77 59 -25 15 -60 40 -78 57 -18 16 -41 30 -51 30 -9 0 -31 15 -47 33
-16 18 -65 61 -109 95 -44 34 -96 78 -116 97 -31 30 -43 35 -86 35 -36 0 -55
-5 -66 -18 -19 -20 -22 -48 -7 -54 5 -1 58 -50 117 -108 59 -58 119 -111 133
-117 14 -6 51 -34 82 -62 31 -28 63 -51 73 -51 9 0 31 -16 49 -35 19 -19 39
-35 46 -35 7 0 43 -25 80 -55 37 -30 74 -55 82 -55 8 0 23 -9 33 -20 10 -11
28 -20 40 -20 13 0 28 -7 35 -15 7 -8 29 -15 50 -15 24 0 43 -7 55 -20 15 -16
31 -20 82 -20 50 0 71 -5 90 -20 23 -18 41 -20 162 -20 124 0 138 2 154 20 13
16 29 20 72 20 36 0 68 7 92 20 21 11 48 20 61 20 12 0 25 7 28 15 4 8 19 15
35 15 18 0 32 7 39 20 6 11 20 20 32 20 26 0 268 236 268 261 0 9 16 32 35 52
21 22 35 46 35 61 0 16 8 30 21 37 18 9 20 17 15 50 -5 32 -3 41 14 51 19 12
20 23 20 267 0 221 -2 257 -16 272 -11 12 -16 35 -16 68 1 35 -4 56 -18 74
-11 14 -20 35 -20 48 0 12 -18 44 -40 70 -22 26 -40 55 -40 64 0 9 -15 22 -34
30 -19 8 -37 19 -41 25 -3 5 -17 10 -30 10 -31 0 -115 -84 -115 -115 0 -13 -7
-25 -15 -29 -8 -3 -15 -17 -15 -31 0 -14 -9 -33 -20 -42 -11 -10 -20 -27 -20
-38 0 -29 -238 -265 -268 -265 -12 0 -25 -7 -28 -15 -4 -10 -20 -15 -49 -15
-29 0 -47 -6 -60 -20 -15 -17 -31 -20 -96 -20 -68 0 -80 3 -89 20 -9 17 -21
20 -74 20 -44 0 -67 5 -76 15 -7 8 -22 15 -35 15 -12 0 -30 9 -40 20 -10 11
-28 20 -39 20 -12 0 -27 9 -34 20 -7 11 -23 20 -36 20 -12 0 -31 9 -41 20 -10
11 -28 20 -40 20 -13 0 -28 7 -35 15 -7 8 -29 15 -50 15 -24 0 -43 7 -55 20
-12 13 -31 20 -55 20 -24 0 -43 7 -55 20 -14 16 -31 20 -75 20 -39 0 -62 5
-70 15 -10 12 -40 15 -150 15 -110 0 -140 -3 -150 -15 -8 -10 -31 -15 -70 -15
-44 0 -61 -4 -75 -20 -10 -11 -28 -20 -40 -20 -12 0 -30 -9 -40 -20 -10 -11
-27 -20 -38 -20 -11 0 -55 -37 -106 -90 -85 -87 -89 -90 -133 -90 -32 0 -48 5
-52 15 -4 11 -23 15 -79 15 -59 0 -80 4 -100 20 -22 18 -40 20 -158 20 -112 0
-135 -3 -152 -17 -15 -14 -42 -19 -128 -21 -77 -3 -112 -8 -120 -18 -8 -10
-35 -14 -89 -14 -64 0 -80 -3 -95 -20 -15 -16 -31 -20 -82 -20 -50 0 -71 -5
-90 -20 -22 -17 -41 -20 -122 -20 -69 -1 -102 -5 -115 -15 -29 -22 -248 -21
-266 0 -8 10 -31 15 -68 15 -38 0 -65 6 -91 22 -55 33 -91 69 -91 93 0 12 -9
30 -20 40 -15 14 -20 31 -20 71 0 48 3 56 45 98 43 44 46 46 103 46 44 0 66 5
85 20 17 14 40 20 75 20 36 0 54 5 67 20 10 11 26 20 36 20 9 0 54 36 98 80
l81 80 0 85 0 85 -30 0 c-19 0 -33 7 -40 20 -10 19 -21 20 -164 20 -124 0
-156 3 -166 15 -7 9 -29 15 -51 15 -25 0 -45 7 -56 19 -10 11 -29 21 -43 23
-13 1 -29 13 -35 24 -6 12 -17 29 -24 38 -18 22 -15 105 4 126 11 12 15 39 15
93 0 67 3 78 20 87 18 10 21 19 18 78 l-3 67 -67 3 c-59 3 -68 0 -78 -18 -6
-11 -21 -20 -34 -20 -13 0 -29 -7 -36 -15 -28 -34 -40 -17 -40 55 l0 70 -59 0
c-40 0 -63 -5 -71 -15z m206 -300 c8 -32 -13 -60 -32 -44 -17 14 -18 41 -2 57
18 18 27 15 34 -13z m2180 -1290 c4 -8 16 -15 29 -15 27 0 155 -130 155 -158
0 -9 16 -32 35 -49 28 -26 35 -40 35 -71 0 -26 7 -45 20 -57 19 -17 20 -31 20
-226 0 -198 -1 -209 -20 -219 -17 -9 -20 -21 -20 -73 0 -50 -4 -66 -19 -79
-15 -13 -19 -25 -15 -50 5 -25 1 -38 -15 -52 -12 -11 -21 -29 -21 -41 0 -12
-9 -30 -20 -40 -13 -12 -20 -31 -20 -55 0 -24 -7 -43 -20 -55 -13 -12 -20 -31
-20 -55 0 -21 -7 -43 -15 -50 -9 -7 -15 -29 -15 -55 0 -29 -6 -47 -20 -60 -14
-13 -20 -31 -20 -61 0 -33 -5 -46 -20 -54 -12 -6 -20 -21 -20 -35 0 -28 -44
-80 -59 -70 -6 3 -11 18 -11 33 0 16 -8 32 -20 40 -18 11 -20 23 -20 144 0
105 -3 135 -15 149 -14 14 -16 81 -17 522 -2 459 0 507 15 530 10 15 17 46 17
72 0 34 5 48 20 57 15 10 20 24 20 55 0 61 59 122 76 78z m-523 -587 c52 -58
56 -70 27 -95 -11 -10 -20 -27 -20 -38 0 -12 -22 -42 -49 -69 -45 -44 -51 -47
-92 -44 l-44 3 -3 43 c-2 30 3 53 17 76 12 18 21 44 21 58 0 20 72 114 90 117
3 1 26 -22 53 -51z m-2176 -105 c3 -10 21 -33 40 -50 18 -18 33 -40 33 -49 0
-9 15 -34 34 -57 19 -23 37 -59 41 -79 4 -21 13 -42 21 -49 19 -15 18 -63 -1
-79 -8 -7 -15 -23 -15 -35 0 -14 -15 -35 -40 -56 -27 -23 -40 -42 -40 -59 0
-14 -9 -31 -20 -38 -11 -7 -20 -23 -20 -35 0 -13 -14 -36 -30 -52 -17 -16 -42
-49 -56 -73 -14 -24 -50 -69 -80 -100 -30 -31 -54 -65 -54 -74 0 -22 -86 -111
-100 -103 -5 3 -10 34 -10 68 0 50 4 66 20 80 13 11 20 29 20 55 0 25 7 43 20
55 11 9 20 28 20 41 0 13 7 29 15 36 8 7 15 28 15 46 0 22 7 40 20 51 12 10
20 30 20 48 0 16 9 44 20 60 12 18 20 47 20 72 0 29 5 45 16 51 14 8 17 24 15
85 -2 66 1 79 18 94 18 15 21 29 21 90 0 59 3 73 15 73 9 0 18 -8 22 -17z"/>
<path d="M886 4131 c-24 -25 -27 -34 -24 -87 l3 -59 90 0 90 0 3 63 c3 57 1
64 -25 87 -41 36 -100 34 -137 -4z"/>
<path d="M5280 1049 c-73 -13 -168 -66 -207 -118 -84 -109 -67 -265 38 -354
24 -21 97 -65 164 -99 179 -91 205 -116 205 -193 0 -85 -59 -130 -161 -123
-73 4 -135 31 -197 83 l-41 36 -50 -61 c-28 -34 -51 -63 -51 -66 0 -12 60 -56
115 -83 173 -88 376 -78 500 23 98 81 128 227 69 336 -36 66 -97 113 -229 177
-135 65 -173 90 -190 123 -30 59 -9 136 47 166 57 32 192 1 256 -59 l24 -22
30 35 c59 70 63 78 42 101 -29 32 -154 89 -219 99 -68 11 -69 11 -145 -1z"/>
<path d="M301 978 c-38 -120 -291 -936 -291 -942 0 -3 47 -6 104 -6 l104 0 21
78 c11 42 26 100 32 128 l12 51 106 6 c58 3 121 11 140 16 19 6 37 9 39 6 3
-3 22 -67 42 -142 l36 -138 107 -3 c82 -2 107 0 107 10 -1 7 -70 234 -154 503
l-154 490 -115 3 -115 3 -21 -63z m239 -550 c0 -5 -50 -8 -111 -8 -90 0 -110
3 -106 14 3 7 26 94 52 192 25 99 48 186 52 194 4 12 112 -363 113 -392z"/>
<path d="M980 552 c0 -384 3 -492 13 -506 12 -16 32 -17 257 -14 189 3 254 8
285 20 39 15 40 16 43 69 l3 54 -196 -3 -195 -4 0 436 0 436 -105 0 -105 0 0
-488z"/>
<path d="M1750 552 c0 -384 3 -492 13 -506 12 -16 32 -17 257 -14 189 3 254 8
285 20 39 15 40 16 43 69 l3 54 -196 -3 -195 -4 0 436 0 436 -105 0 -105 0 0
-488z"/>
<path d="M2430 1028 c-1 -7 41 -235 92 -505 l92 -493 127 0 127 0 10 47 c6 27
36 178 68 336 37 184 61 282 66 270 4 -10 34 -151 68 -313 33 -162 62 -305 65
-318 5 -21 9 -22 135 -22 72 0 130 2 130 5 0 7 168 940 176 978 l6 27 -101 0
-100 0 -6 -32 c-12 -72 -105 -712 -105 -726 0 -46 -19 32 -93 375 l-82 378
-90 3 -91 3 -79 -368 c-74 -347 -93 -426 -94 -395 -1 7 -26 177 -56 378 -30
201 -55 370 -55 375 0 15 -210 11 -210 -3z"/>
<path d="M3901 978 c-38 -120 -291 -936 -291 -942 0 -3 47 -6 104 -6 l104 0
21 78 c11 42 26 100 32 128 l12 51 106 6 c58 3 121 11 140 16 19 6 37 9 39 6
3 -3 22 -67 42 -142 l36 -138 107 -3 c82 -2 107 0 107 10 -1 7 -70 234 -154
503 l-154 490 -115 3 -115 3 -21 -63z m239 -550 c0 -5 -50 -8 -111 -8 -90 0
-110 3 -106 14 3 7 26 94 52 192 25 99 48 186 52 194 4 12 112 -363 113 -392z"/>
<path d="M4590 535 l0 -506 92 3 91 3 13 35 c9 26 13 153 13 503 l1 467 -105
0 -105 0 0 -505z"/>
</g>
</svg>
